<?xml version="1.0" standalone="no"?>
<!DOCTYPE svg PUBLIC "-//W3C//DTD SVG 20010904//EN"
 "http://www.w3.org/TR/2001/REC-SVG-20010904/DTD/svg10.dtd">
<svg version="1.0" xmlns="http://www.w3.org/2000/svg"
 width="260.000000pt" height="260.000000pt" viewBox="0 0 260.000000 260.000000"
 preserveAspectRatio="xMidYMid meet">
<metadata>
Created by potrace 1.14, written by Peter Selinger 2001-2017
</metadata>
<g transform="translate(0.000000,260.000000) scale(0.100000,-0.100000)"
fill="#000000" stroke="none">
<path d="M685 1842 c-3 -3 -5 -25 -5 -49 0 -41 -1 -43 -31 -43 -49 0 -170 -30
-226 -57 -78 -36 -145 -102 -179 -175 -25 -56 -29 -74 -29 -159 0 -87 3 -101
33 -161 38 -78 92 -130 177 -169 62 -29 175 -58 228 -59 26 0 27 -2 27 -50 l0
-50 94 0 95 0 3 47 3 47 77 12 c142 22 225 61 297 139 70 76 86 122 86 245 0
93 -3 112 -26 161 -33 69 -91 130 -160 164 -60 31 -187 65 -241 65 l-38 0 0
50 0 51 -90 -2 c-49 -1 -92 -4 -95 -7z m-5 -482 c0 -126 -2 -230 -5 -230 -20
0 -116 25 -140 37 -81 41 -119 102 -119 193 0 115 54 182 174 214 99 26 90 47
90 -214z m326 199 c87 -33 134 -103 134 -201 -1 -122 -77 -197 -228 -223 l-42
-7 0 232 0 232 43 -7 c23 -4 65 -16 93 -26z"/>
<path d="M1500 1360 l0 -450 100 0 100 0 2 183 3 182 203 3 202 2 0 -185 0
-185 105 0 105 0 -2 448 -3 447 -102 3 -103 3 0 -181 0 -180 -205 0 -205 0 0
180 0 180 -100 0 -100 0 0 -450z"/>
</g>
</svg>
