<svg width="48" height="48" viewBox="0 0 48 48" fill="none" xmlns="http://www.w3.org/2000/svg">
<g clip-path="url(#clip0_145_1699)">
<path d="M23.9999 0C37.2555 0 48 10.746 48 24.0001C48 37.2557 37.2555 48 23.9999 48C10.7443 48 0 37.2555 0 24.0001C0 10.746 10.7445 0 23.9999 0Z" fill="#3B5998"/>
<path d="M26.9214 16.5224H30.0144V11.9534H26.3785V11.9699C21.9729 12.1259 21.07 14.6024 20.9904 17.2034H20.9814V19.485H17.9814V23.9594H20.9814V35.9533H25.5024V23.9594H29.2059L29.9213 19.485H25.5039V18.1065C25.5039 17.2275 26.0888 16.5224 26.9214 16.5224Z" fill="white"/>
</g>
<defs>
<clipPath id="clip0_145_1699">
<rect width="48" height="48" fill="white"/>
</clipPath>
</defs>
</svg>
