<svg width="48" height="48" viewBox="0 0 48 48" fill="none" xmlns="http://www.w3.org/2000/svg">
<g clip-path="url(#clip0_145_1706)">
<path d="M3.0004 3.26603C-0.771601 7.18403 0.000398517 11.346 0.000398517 23.99C0.000398517 34.49 -1.8316 45.016 7.7564 47.494C10.7504 48.264 37.2784 48.264 40.2684 47.49C44.2604 46.46 47.5084 43.222 47.9524 37.576C48.0144 36.788 48.0144 11.206 47.9504 10.402C47.4784 4.38803 43.7764 0.922032 38.8984 0.220032C37.7804 0.0580318 37.5564 0.0100318 31.8204 3.17544e-05C11.4744 0.0100318 7.0144 -0.895968 3.0004 3.26603Z" fill="url(#paint0_linear_145_1706)"/>
<path d="M23.9956 6.27803C16.7336 6.27803 9.83763 5.63203 7.20363 12.392C6.11563 15.184 6.27363 18.81 6.27363 24.002C6.27363 28.558 6.12763 32.84 7.20363 35.61C9.83163 42.374 16.7836 41.726 23.9916 41.726C30.9456 41.726 38.1156 42.45 40.7816 35.61C41.8716 32.79 41.7116 29.218 41.7116 24.002C41.7116 17.078 42.0936 12.608 38.7356 9.25203C35.3356 5.85203 30.7376 6.27803 23.9876 6.27803H23.9956ZM22.4076 9.47203C37.5556 9.44803 39.4836 7.76403 38.4196 31.158C38.0416 39.432 31.7416 38.524 23.9976 38.524C9.87763 38.524 9.47163 38.12 9.47163 23.994C9.47163 9.70403 10.5916 9.48003 22.4076 9.46803V9.47203ZM33.4556 12.414C32.2816 12.414 31.3296 13.366 31.3296 14.54C31.3296 15.714 32.2816 16.666 33.4556 16.666C34.6296 16.666 35.5816 15.714 35.5816 14.54C35.5816 13.366 34.6296 12.414 33.4556 12.414ZM23.9956 14.9C18.9696 14.9 14.8956 18.976 14.8956 24.002C14.8956 29.028 18.9696 33.102 23.9956 33.102C29.0216 33.102 33.0936 29.028 33.0936 24.002C33.0936 18.976 29.0216 14.9 23.9956 14.9ZM23.9956 18.094C31.8056 18.094 31.8156 29.91 23.9956 29.91C16.1876 29.91 16.1756 18.094 23.9956 18.094Z" fill="white"/>
</g>
<defs>
<linearGradient id="paint0_linear_145_1706" x1="3.09244" y1="44.9342" x2="47.7034" y2="6.32398" gradientUnits="userSpaceOnUse">
<stop stop-color="#FFDD55"/>
<stop offset="0.5" stop-color="#FF543E"/>
<stop offset="1" stop-color="#C837AB"/>
</linearGradient>
<clipPath id="clip0_145_1706">
<rect width="48" height="48" fill="white"/>
</clipPath>
</defs>
</svg>
