<?xml version="1.0" standalone="no"?>
<!DOCTYPE svg PUBLIC "-//W3C//DTD SVG 20010904//EN"
 "http://www.w3.org/TR/2001/REC-SVG-20010904/DTD/svg10.dtd">
<svg version="1.0" xmlns="http://www.w3.org/2000/svg"
 width="100.000000pt" height="100.000000pt" viewBox="0 0 100.000000 100.000000"
 preserveAspectRatio="xMidYMid meet">

<g transform="translate(0.000000,100.000000) scale(0.100000,-0.100000)"
fill="#000000" stroke="none">
<path d="M56 862 c-15 -17 -16 -54 -14 -378 l3 -359 455 0 455 0 3 354 c2 305
0 357 -13 378 l-15 23 -429 0 c-403 0 -429 -1 -445 -18z m862 -124 l3 -98
-421 0 -420 0 0 93 c0 52 3 97 7 100 4 4 191 6 417 5 l411 -3 3 -97z m2 -358
l0 -220 -420 0 -420 0 0 220 0 220 420 0 420 0 0 -220z"/>
<path d="M380 740 l0 -60 240 0 240 0 0 60 0 60 -240 0 -240 0 0 -60z m440 0
c0 -19 -7 -20 -200 -20 -193 0 -200 1 -200 20 0 19 7 20 200 20 193 0 200 -1
200 -20z"/>
<path d="M130 765 c-26 -32 13 -81 48 -59 34 22 22 74 -18 74 -10 0 -23 -7
-30 -15z"/>
<path d="M250 765 c-26 -32 13 -81 48 -59 34 22 22 74 -18 74 -10 0 -23 -7
-30 -15z"/>
</g>
</svg>
