<svg width="48" height="48" viewBox="0 0 48 48" fill="none" xmlns="http://www.w3.org/2000/svg">
<g clip-path="url(#clip0_145_1713)">
<path d="M23.9871 0.0126458C10.7401 0.0154567 0.00357906 10.7566 0.00638989 24.0036C0.00732684 28.5906 1.32364 33.0811 3.79905 36.9428L0.0672913 46.6251C-0.131435 47.1401 0.124914 47.7186 0.639859 47.9174C0.755009 47.9618 0.877281 47.9845 1.00068 47.9844C1.11517 47.9849 1.22882 47.9653 1.33648 47.9264L11.3306 44.3585C22.5751 51.3617 37.3677 47.9234 44.3709 36.6788C51.374 25.4342 47.9357 10.6416 36.6912 3.63853C32.8795 1.2645 28.4778 0.00824217 23.9871 0.0126458Z" fill="#55CD6C"/>
<path d="M35.4225 28.098C35.4225 28.098 32.974 26.8987 31.4409 26.0992C29.7059 25.2057 27.6671 26.8787 26.7077 27.8302C25.2145 27.2566 23.8507 26.3909 22.6961 25.2837C21.5887 24.1293 20.723 22.7654 20.1495 21.272C21.101 20.3106 22.77 18.2738 21.8806 16.5389C21.091 15.0038 19.8818 12.5572 19.8818 12.5553C19.7121 12.2185 19.3674 12.0059 18.9903 12.0056H16.9915C14.0806 12.5083 11.9641 15.0482 11.9945 18.002C11.9945 21.1401 15.7502 27.1686 18.2828 29.7031C20.8153 32.2375 26.8437 35.9914 29.9838 35.9914C32.9376 36.0217 35.4775 33.9052 35.9803 30.9944V28.9956C35.9806 28.6144 35.7643 28.2663 35.4225 28.098Z" fill="#FAFAFA"/>
</g>
<defs>
<clipPath id="clip0_145_1713">
<rect width="48" height="48" fill="white"/>
</clipPath>
</defs>
</svg>
